<svg width="32" height="32" viewBox="0 0 32 32" fill="none" xmlns="http://www.w3.org/2000/svg">
<rect width="32" height="32" fill="#03474E"/>
<path d="M6.4 29.12C6.16 29.12 5.98667 29.0267 5.88 28.84C5.77333 28.6533 5.72 28.4533 5.72 28.24C5.74667 27.7867 5.85333 27.5333 6.04 27.48C6.22667 27.4267 6.45333 27.4 6.72 27.4C7.57333 27.4 8.17333 27.2533 8.52 26.96C8.86667 26.64 9.08 26.2533 9.16 25.8C9.26667 25.32 9.32 24.8267 9.32 24.32V8.44C9.32 7.93333 9.26667 7.45333 9.16 7C9.08 6.52 8.86667 6.13333 8.52 5.84C8.17333 5.52 7.57333 5.36 6.72 5.36C6.45333 5.36 6.22667 5.33333 6.04 5.28C5.85333 5.22667 5.74667 4.97333 5.72 4.52C5.72 4.30667 5.77333 4.10667 5.88 3.92C5.98667 3.73333 6.16 3.64 6.4 3.64C7.28 3.66667 8.09333 3.69333 8.84 3.72C9.58667 3.74667 10.36 3.76 11.16 3.76C12.7867 3.76 14.4533 3.72 16.16 3.64C16.4267 3.64 16.6133 3.73333 16.72 3.92C16.8267 4.10667 16.88 4.30667 16.88 4.52C16.8533 4.97333 16.7467 5.22667 16.56 5.28C16.3733 5.33333 16.1467 5.36 15.88 5.36C15.0533 5.36 14.4533 5.52 14.08 5.84C13.7333 6.13333 13.52 6.52 13.44 7C13.36 7.45333 13.3067 7.93333 13.28 8.44V24.92C13.3067 25.2667 13.36 25.64 13.44 26.04C13.52 26.44 13.7467 26.7733 14.12 27.04C14.52 27.3067 15.1733 27.4267 16.08 27.4H19.68C20.6133 27.3733 21.32 27.2267 21.8 26.96C22.3067 26.6667 22.7067 26.1867 23 25.52C23.2933 24.8533 23.6133 23.9333 23.96 22.76C24.0667 22.4933 24.24 22.32 24.48 22.24C24.7467 22.16 25.0267 22.1467 25.32 22.2C25.5333 22.2267 25.7467 22.32 25.96 22.48C26.2 22.64 26.3067 22.8533 26.28 23.12L25.48 28.16C25.4 28.5333 25.2667 28.7733 25.08 28.88C24.92 28.96 24.6667 29 24.32 29H11.2C10.4 29 9.61333 29 8.84 29C8.09333 29.0267 7.28 29.0667 6.4 29.12Z" fill="#F2EFE9"/>
</svg>
