<svg width="16" height="17" viewBox="0 0 16 17" fill="none" xmlns="http://www.w3.org/2000/svg">
<path d="M3.00006 3.75035C5.33256 2.58435 7.25006 4.00035 8.00006 5.00035C8.75006 4.00035 10.6676 2.58435 13.0001 3.75035C16.0001 5.25035 15.2501 9.00035 13.0001 11.2504C11.9021 12.3484 9.96856 14.2819 8.55456 15.3574C8.39661 15.4773 8.20282 15.5406 8.0045 15.5369C7.80618 15.5331 7.6149 15.4627 7.46156 15.3369C6.16506 14.2904 4.08256 12.3329 3.00006 11.2504C0.750057 9.00035 5.6386e-05 5.25035 3.00006 3.75035Z" fill="#F8312F"/>
<path d="M8.00006 5.00002V6.52502C8.63506 5.18252 10.2126 3.39002 12.8291 3.66852C10.5741 2.65352 8.73156 4.02452 8.00006 5.00002ZM5.97306 3.51852C5.13006 3.22502 4.11256 3.19352 3.00006 3.75002C5.68628e-05 5.25002 0.750057 9.00002 3.00006 11.25C4.08256 12.3325 6.16506 14.29 7.46156 15.3365C7.61495 15.4623 7.80626 15.5326 8.00458 15.5363C8.20291 15.5399 8.39666 15.4766 8.55456 15.3565C8.68156 15.2598 8.81239 15.1568 8.94706 15.0475C7.52006 13.976 5.51706 12.288 4.42956 11.3165C1.95106 9.10101 1.12456 5.40902 4.42956 3.93202C4.91766 3.70979 5.43923 3.57006 5.97306 3.51852Z" fill="#CA0B4A"/>
<path d="M10.5433 9.11757C11.2215 9.50916 12.3065 8.89968 12.9667 7.75626C13.6268 6.61283 13.6122 5.36846 12.9339 4.97686C12.2556 4.58527 11.1706 5.19475 10.5105 6.33818C9.85033 7.4816 9.86501 8.72598 10.5433 9.11757Z" fill="#F37366"/>
</svg>
