<svg width="168" height="60" viewBox="0 0 168 60" fill="none" xmlns="http://www.w3.org/2000/svg">
<rect x="122" width="46" height="60" fill="#2C2C2C"/>
<path d="M0 0H122V60H0V0Z" fill="#03474E"/>
<rect x="103" y="6" width="49" height="48" fill="#97A33E"/>
<path d="M16.84 51.192C16.456 51.192 16.1787 51.0427 16.008 50.744C15.8373 50.4453 15.752 50.1253 15.752 49.784C15.7947 49.0587 15.9653 48.6533 16.264 48.568C16.5627 48.4827 16.9253 48.44 17.352 48.44C18.7173 48.44 19.6773 48.2053 20.232 47.736C20.7867 47.224 21.128 46.6053 21.256 45.88C21.4267 45.112 21.512 44.3227 21.512 43.512V18.104C21.512 17.2933 21.4267 16.5253 21.256 15.8C21.128 15.032 20.7867 14.4133 20.232 13.944C19.6773 13.432 18.7173 13.176 17.352 13.176C16.9253 13.176 16.5627 13.1333 16.264 13.048C15.9653 12.9627 15.7947 12.5573 15.752 11.832C15.752 11.4907 15.8373 11.1707 16.008 10.872C16.1787 10.5733 16.456 10.424 16.84 10.424C18.248 10.4667 19.5493 10.5093 20.744 10.552C21.9387 10.5947 23.176 10.616 24.456 10.616C27.0587 10.616 29.7253 10.552 32.456 10.424C32.8827 10.424 33.1813 10.5733 33.352 10.872C33.5227 11.1707 33.608 11.4907 33.608 11.832C33.5653 12.5573 33.3947 12.9627 33.096 13.048C32.7973 13.1333 32.4347 13.176 32.008 13.176C30.6853 13.176 29.7253 13.432 29.128 13.944C28.5733 14.4133 28.232 15.032 28.104 15.8C27.976 16.5253 27.8907 17.2933 27.848 18.104V44.472C27.8907 45.0267 27.976 45.624 28.104 46.264C28.232 46.904 28.5947 47.4373 29.192 47.864C29.832 48.2907 30.8773 48.4827 32.328 48.44H38.088C39.5813 48.3973 40.712 48.1627 41.48 47.736C42.2907 47.2667 42.9307 46.4987 43.4 45.432C43.8693 44.3653 44.3813 42.8933 44.936 41.016C45.1067 40.5893 45.384 40.312 45.768 40.184C46.1947 40.056 46.6427 40.0347 47.112 40.12C47.4533 40.1627 47.7947 40.312 48.136 40.568C48.52 40.824 48.6907 41.1653 48.648 41.592L47.368 49.656C47.24 50.2533 47.0267 50.6373 46.728 50.808C46.472 50.936 46.0667 51 45.512 51H24.52C23.24 51 21.9813 51 20.744 51C19.5493 51.0427 18.248 51.1067 16.84 51.192ZM52.6985 51.192C52.3998 51.192 52.1438 51.064 51.9305 50.808C51.7598 50.5093 51.6745 50.2107 51.6745 49.912C51.7598 49.272 51.9305 48.9307 52.1865 48.888C52.4425 48.8027 52.7838 48.76 53.2105 48.76C54.4052 48.76 55.2158 48.568 55.6425 48.184C56.0692 47.7573 56.3038 47.2027 56.3465 46.52C56.4318 45.8373 56.4745 45.1333 56.4745 44.408V29.752C56.4745 28.984 56.4318 28.28 56.3465 27.64C56.3038 26.9573 56.0692 26.424 55.6425 26.04C55.2158 25.6133 54.4052 25.4 53.2105 25.4C52.8265 25.4 52.4638 25.3573 52.1225 25.272C51.8238 25.144 51.6745 24.76 51.6745 24.12C51.6745 23.48 52.0158 23.096 52.6985 22.968C54.6612 22.6693 56.1545 22.3707 57.1785 22.072C58.2452 21.7733 59.0558 21.5173 59.6105 21.304C60.1652 21.0907 60.6558 20.9627 61.0825 20.92C61.4238 20.8773 61.7012 20.9413 61.9145 21.112C62.1705 21.2827 62.2985 21.624 62.2985 22.136V44.408C62.2985 45.1333 62.3198 45.8373 62.3625 46.52C62.4478 47.2027 62.7038 47.7573 63.1305 48.184C63.5998 48.568 64.4318 48.76 65.6265 48.76C66.0105 48.76 66.3305 48.8027 66.5865 48.888C66.8852 48.9307 67.0558 49.272 67.0985 49.912C67.0985 50.2107 67.0132 50.5093 66.8425 50.808C66.6718 51.064 66.4158 51.192 66.0745 51.192C64.8372 51.1067 63.6852 51.0427 62.6185 51C61.5945 51 60.5065 51 59.3545 51C58.2025 51 57.1145 51 56.0905 51C55.0665 51.0427 53.9358 51.1067 52.6985 51.192ZM59.0345 13.816C57.8398 13.816 56.8372 13.4533 56.0265 12.728C55.2158 11.96 54.8105 11.0213 54.8105 9.912C54.8105 8.93067 55.3012 8.056 56.2825 7.288C57.2638 6.52 58.3732 6.136 59.6105 6.136C60.6772 6.136 61.5518 6.52 62.2345 7.288C62.9172 8.01333 63.2585 8.952 63.2585 10.104C63.2585 11.128 62.8532 12.0027 62.0425 12.728C61.2318 13.4533 60.2292 13.816 59.0345 13.816ZM70.548 51.192C70.2493 51.192 70.0147 51.0427 69.844 50.744C69.6733 50.4453 69.588 50.168 69.588 49.912C69.6307 49.272 69.78 48.9307 70.036 48.888C70.3347 48.8027 70.6547 48.76 70.996 48.76C72.3613 48.76 73.364 48.44 74.004 47.8C74.644 47.16 75.4973 46.2213 76.564 44.984C77.3747 44.088 78.356 42.936 79.508 41.528C80.66 40.12 81.8333 38.6693 83.028 37.176L75.732 26.872C75.1773 26.1467 74.6013 25.592 74.004 25.208C73.4067 24.7813 72.6387 24.4827 71.7 24.312C71.1453 24.2267 70.7613 24.1413 70.548 24.056C70.3773 23.9707 70.2707 23.6507 70.228 23.096C70.1853 22.3707 70.3773 21.9867 70.804 21.944C71.2733 21.8587 71.828 21.7947 72.468 21.752C76.82 21.5387 79.9773 22.7333 81.94 25.336C82.4093 25.9333 83.028 26.8933 83.796 28.216C84.564 29.496 85.5667 30.9467 86.804 32.568L91.092 27C91.9027 25.848 92.2653 25.1227 92.18 24.824C92.0947 24.4827 91.1987 24.2907 89.492 24.248C89.108 24.248 88.788 24.2267 88.532 24.184C88.276 24.0987 88.1267 23.736 88.084 23.096C88.084 22.84 88.148 22.5627 88.276 22.264C88.4467 21.9653 88.6813 21.816 88.98 21.816C90.2173 21.8587 91.1347 21.9013 91.732 21.944C92.372 21.9867 93.2467 22.008 94.356 22.008C95.4653 22.008 96.34 21.9867 96.98 21.944C97.6627 21.9013 98.6227 21.8587 99.86 21.816C100.201 21.816 100.436 21.9653 100.564 22.264C100.735 22.5627 100.82 22.84 100.82 23.096C100.777 23.736 100.607 24.0773 100.308 24.12C100.052 24.1627 99.7533 24.2053 99.412 24.248C98.5587 24.2907 97.8547 24.44 97.3 24.696C96.7453 24.9093 96.212 25.272 95.7 25.784C95.2307 26.296 94.612 27.0427 93.844 28.024C93.2893 28.664 92.5427 29.5813 91.604 30.776C90.708 31.9707 89.6627 33.2933 88.468 34.744C89.876 36.5787 91.2627 38.4133 92.628 40.248C94.036 42.04 95.252 43.6187 96.276 44.984C96.9587 45.9227 97.7053 46.7973 98.516 47.608C99.3693 48.376 100.329 48.76 101.396 48.76C101.78 48.76 102.1 48.8027 102.356 48.888C102.655 48.9307 102.825 49.272 102.868 49.912C102.868 50.2107 102.783 50.5093 102.612 50.808C102.441 51.064 102.185 51.192 101.844 51.192C100.607 51.1067 99.5613 51.0427 98.708 51C97.8547 51 96.852 51 95.7 51C94.548 51 93.4387 51 92.372 51C91.3053 51.0427 90.1533 51.1067 88.916 51.192C88.6173 51.192 88.3613 51.064 88.148 50.808C87.9773 50.5093 87.892 50.2107 87.892 49.912C87.9347 49.272 88.084 48.9307 88.34 48.888C88.6387 48.8027 88.98 48.76 89.364 48.76C90.2173 48.76 90.6653 48.504 90.708 47.992C90.7507 47.48 90.452 46.8187 89.812 46.008L84.82 39.352L79.316 46.008C78.42 47.16 78.0787 47.9067 78.292 48.248C78.548 48.5893 79.4227 48.76 80.916 48.76C81.3 48.76 81.62 48.8027 81.876 48.888C82.132 48.9307 82.2813 49.272 82.324 49.912C82.324 50.168 82.26 50.4453 82.132 50.744C82.004 51.0427 81.7693 51.192 81.428 51.192C80.2333 51.1067 79.316 51.0427 78.676 51C78.036 51 77.1613 51 76.052 51C74.9427 51 74.0467 51 73.364 51C72.724 51.0427 71.7853 51.1067 70.548 51.192Z" fill="#F2EFE9"/>
<path d="M106.348 51.174C105.961 51.174 105.691 51.0387 105.536 50.768C105.381 50.4973 105.304 50.2073 105.304 49.898C105.343 49.2407 105.497 48.8733 105.768 48.796C106.039 48.7187 106.367 48.68 106.754 48.68C107.798 48.68 108.591 48.4673 109.132 48.042C109.673 47.6167 110.099 47.056 110.408 46.36C110.756 45.664 111.085 44.9487 111.394 44.214L121.544 20.202C121.931 19.274 122.008 18.578 121.776 18.114C121.544 17.6113 121.157 17.2633 120.616 17.07C120.075 16.838 119.475 16.664 118.818 16.548C118.238 16.432 117.851 16.3353 117.658 16.258C117.465 16.142 117.368 15.794 117.368 15.214C117.368 14.5567 117.6 14.2087 118.064 14.17C118.528 14.0927 119.069 14.054 119.688 14.054C121.273 14.054 122.627 14.2087 123.748 14.518C124.869 14.8273 125.836 15.4267 126.648 16.316C127.46 17.1667 128.214 18.462 128.91 20.202L138.654 44.214C138.925 44.8713 139.215 45.548 139.524 46.244C139.833 46.94 140.239 47.52 140.742 47.984C141.283 48.4093 141.96 48.6413 142.772 48.68C143.197 48.68 143.526 48.7187 143.758 48.796C144.029 48.8733 144.183 49.2407 144.222 49.898C144.222 50.2073 144.125 50.4973 143.932 50.768C143.777 51.0387 143.526 51.174 143.178 51.174C141.941 51.0967 140.858 51.0387 139.93 51C139.002 51 137.958 51 136.798 51C134.517 51 132.119 51.058 129.606 51.174C129.219 51.174 128.949 51.0387 128.794 50.768C128.639 50.4973 128.562 50.2073 128.562 49.898C128.601 49.2407 128.755 48.8733 129.026 48.796C129.297 48.7187 129.625 48.68 130.012 48.68C131.907 48.68 132.931 48.332 133.086 47.636C133.279 46.94 133.105 45.7993 132.564 44.214L130.592 39.4H116.266C115.686 40.8693 115.261 41.9327 114.99 42.59C114.758 43.2473 114.603 43.6727 114.526 43.866C114.487 44.0593 114.449 44.1753 114.41 44.214C113.985 45.5287 113.753 46.5147 113.714 47.172C113.714 47.7907 114.023 48.1967 114.642 48.39C115.299 48.5833 116.382 48.68 117.89 48.68C118.315 48.68 118.644 48.7187 118.876 48.796C119.147 48.8733 119.301 49.2407 119.34 49.898C119.34 50.2073 119.243 50.4973 119.05 50.768C118.895 51.0387 118.644 51.174 118.296 51.174C117.059 51.0967 115.976 51.0387 115.048 51C114.159 51 113.134 51 111.974 51C111.201 51 110.543 51 110.002 51C109.499 51.0387 108.977 51.058 108.436 51.058C107.895 51.0967 107.199 51.1353 106.348 51.174ZM117.368 36.906H129.548L123.69 22H123.516L117.368 36.906Z" fill="#2C2C2C"/>
</svg>
