<svg width="28" height="28" viewBox="0 0 28 28" fill="none" xmlns="http://www.w3.org/2000/svg">
<g clip-path="url(#clip0_207_688)">
<path fill-rule="evenodd" clip-rule="evenodd" d="M14 22.6154C14.2856 22.6154 14.5595 22.7288 14.7615 22.9308C14.9635 23.1328 15.0769 23.4067 15.0769 23.6923V26.9231C15.0769 27.2087 14.9635 27.4826 14.7615 27.6846C14.5595 27.8865 14.2856 28 14 28C13.7144 28 13.4405 27.8865 13.2385 27.6846C13.0365 27.4826 12.9231 27.2087 12.9231 26.9231V23.6923C12.9231 23.4067 13.0365 23.1328 13.2385 22.9308C13.4405 22.7288 13.7144 22.6154 14 22.6154ZM7.90785 20.0922C8.10974 20.2941 8.22316 20.568 8.22316 20.8535C8.22316 21.1391 8.10974 21.413 7.90785 21.6149L5.62369 23.8991C5.42058 24.0952 5.14855 24.2038 4.86618 24.2013C4.58382 24.1989 4.31371 24.0856 4.11404 23.886C3.91437 23.6863 3.80111 23.4162 3.79866 23.1338C3.79621 22.8515 3.90475 22.5794 4.10092 22.3763L6.384 20.0922C6.48402 19.992 6.60279 19.9126 6.73353 19.8584C6.86426 19.8042 7.0044 19.7763 7.14592 19.7763C7.28745 19.7763 7.42758 19.8042 7.55832 19.8584C7.68906 19.9126 7.80783 19.992 7.90785 20.0922ZM21.6149 20.0922L23.8991 22.3763C24.0952 22.5794 24.2038 22.8515 24.2013 23.1338C24.1989 23.4162 24.0856 23.6863 23.886 23.886C23.6863 24.0856 23.4162 24.1989 23.1338 24.2013C22.8515 24.2038 22.5794 24.0952 22.3763 23.8991L20.0922 21.616C19.8901 21.4141 19.7765 21.1401 19.7764 20.8545C19.7763 20.5688 19.8897 20.2948 20.0916 20.0927C20.2935 19.8906 20.5675 19.777 20.8532 19.7769C21.1388 19.7768 21.4128 19.8902 21.6149 20.0922ZM14 8.61539C15.4281 8.61539 16.7977 9.18269 17.8075 10.1925C18.8173 11.2023 19.3846 12.5719 19.3846 14C19.3846 15.4281 18.8173 16.7977 17.8075 17.8075C16.7977 18.8173 15.4281 19.3846 14 19.3846C12.5719 19.3846 11.2023 18.8173 10.1925 17.8075C9.18269 16.7977 8.61539 15.4281 8.61539 14C8.61539 12.5719 9.18269 11.2023 10.1925 10.1925C11.2023 9.18269 12.5719 8.61539 14 8.61539ZM26.9231 12.9231C27.2087 12.9231 27.4826 13.0365 27.6846 13.2385C27.8865 13.4405 28 13.7144 28 14C28 14.2856 27.8865 14.5595 27.6846 14.7615C27.4826 14.9635 27.2087 15.0769 26.9231 15.0769H23.6923C23.4067 15.0769 23.1328 14.9635 22.9308 14.7615C22.7288 14.5595 22.6154 14.2856 22.6154 14C22.6154 13.7144 22.7288 13.4405 22.9308 13.2385C23.1328 13.0365 23.4067 12.9231 23.6923 12.9231H26.9231ZM4.30769 12.9231C4.59331 12.9231 4.86723 13.0365 5.06919 13.2385C5.27115 13.4405 5.38462 13.7144 5.38462 14C5.38462 14.2856 5.27115 14.5595 5.06919 14.7615C4.86723 14.9635 4.59331 15.0769 4.30769 15.0769H1.07692C0.791305 15.0769 0.517386 14.9635 0.315423 14.7615C0.113461 14.5595 0 14.2856 0 14C0 13.7144 0.113461 13.4405 0.315423 13.2385C0.517386 13.0365 0.791305 12.9231 1.07692 12.9231H4.30769ZM23.8991 4.10092C24.101 4.30288 24.2144 4.57675 24.2144 4.86231C24.2144 5.14787 24.101 5.42174 23.8991 5.62369L21.616 7.90785C21.4141 8.10992 21.1401 8.2235 20.8545 8.2236C20.5688 8.2237 20.2948 8.11032 20.0927 7.90839C19.8906 7.70645 19.777 7.43252 19.7769 7.14684C19.7768 6.86117 19.8902 6.58715 20.0922 6.38508L22.3763 4.10092C22.5783 3.89903 22.8521 3.78561 23.1377 3.78561C23.4233 3.78561 23.6971 3.89903 23.8991 4.10092ZM5.62369 4.10092L7.90785 6.384C8.11006 6.58579 8.22384 6.85964 8.22414 7.14532C8.22444 7.43099 8.11125 7.70509 7.90946 7.90731C7.70767 8.10953 7.43382 8.2233 7.14814 8.2236C6.86247 8.22391 6.58837 8.11071 6.38615 7.90892L4.10092 5.62369C3.90475 5.42058 3.79621 5.14855 3.79866 4.86618C3.80111 4.58382 3.91437 4.31371 4.11404 4.11404C4.31371 3.91437 4.58382 3.80111 4.86618 3.79866C5.14855 3.79621 5.42058 3.90475 5.62369 4.10092ZM14 0C14.2856 0 14.5595 0.113461 14.7615 0.315423C14.9635 0.517386 15.0769 0.791305 15.0769 1.07692V4.30769C15.0769 4.59331 14.9635 4.86723 14.7615 5.06919C14.5595 5.27115 14.2856 5.38462 14 5.38462C13.7144 5.38462 13.4405 5.27115 13.2385 5.06919C13.0365 4.86723 12.9231 4.59331 12.9231 4.30769V1.07692C12.9231 0.791305 13.0365 0.517386 13.2385 0.315423C13.4405 0.113461 13.7144 0 14 0Z" fill="white"/>
</g>
<defs>
<clipPath id="clip0_207_688">
<rect width="28" height="28" fill="white"/>
</clipPath>
</defs>
</svg>
