<svg width="16" height="12" viewBox="0 0 16 12" fill="none" xmlns="http://www.w3.org/2000/svg">
<path d="M8.29577 11L4.64789 3L2.10029 8.587M1 11L2.10029 8.587M2.10029 8.587H7.15094M11.3877 5.76469C11.492 5.62508 11.8368 5.44475 11.9962 5.37204C12.7959 5.16263 13.4594 5.28478 13.6912 5.37204C14.6995 5.75596 14.9805 6.57907 14.995 6.94263V8.93914M14.995 11V9.16764M14.995 9.16764V8.93914M14.995 9.16764C15.0018 9.08929 15.0015 9.01307 14.995 8.93914M14.995 8.93914C14.9354 8.25562 14.3526 7.76765 14.0389 7.59705C13.6912 7.39345 12.7698 7.10842 11.8658 7.59705C10.9618 8.08568 10.8227 8.84771 10.8661 9.16764C10.8372 9.40032 10.9357 10.0053 11.5615 10.5637C11.8947 10.7819 12.6915 11.0436 13.4739 10.9127C13.5608 10.8691 14.6473 10.6946 14.9081 9.7348" stroke="#777382" stroke-width="2" stroke-linecap="round"/>
</svg>
