<svg width="17" height="18" viewBox="0 0 17 18" fill="none" xmlns="http://www.w3.org/2000/svg">
<path d="M6.97032 14.3381V15.5067C6.97032 15.826 7.14809 16.088 7.36682 16.088H8.9536C9.17388 16.088 9.35087 15.8252 9.35087 15.5067V14.3381M7.55773 6.19168C7.10136 6.19188 6.66374 6.37332 6.34111 6.6961C6.01848 7.01887 5.83724 7.45657 5.83724 7.91294M13.8275 8.67116H15.2451M12.4008 4.02445L13.4063 3.01889M13.1737 12.6099L14.1792 13.6147M8.1606 1.30768V2.4539M2.93575 3.01812L3.93434 4.02445M2.16284 13.6147L3.16143 12.6099M2.49364 8.67116H1.0769M12.2199 9.12408C12.0004 10.952 10.8032 11.6824 10.2861 12.2126C9.76824 12.7444 9.86099 12.8503 9.89577 13.6301C9.90157 13.7266 9.88756 13.8233 9.85459 13.9141C9.82162 14.005 9.77039 14.0882 9.70406 14.1585C9.63773 14.2288 9.5577 14.2848 9.46891 14.323C9.38012 14.3612 9.28445 14.3808 9.18779 14.3806H7.1334C7.03681 14.3805 6.94126 14.3606 6.85258 14.3223C6.76391 14.284 6.68397 14.228 6.61765 14.1578C6.55133 14.0875 6.50001 14.0045 6.46683 13.9138C6.43364 13.8231 6.41929 13.7266 6.42465 13.6301C6.42465 12.865 6.49575 12.6872 6.0351 12.2126C5.44769 11.6252 4.06573 10.7959 4.06573 8.51503C4.06221 7.94849 4.17608 7.38736 4.40018 6.86702C4.62428 6.34667 4.95375 5.87839 5.36781 5.49169C5.78187 5.105 6.27155 4.80827 6.80599 4.62022C7.34042 4.43217 7.90801 4.35687 8.47299 4.39907C9.03797 4.44127 9.58808 4.60005 10.0886 4.86541C10.5892 5.13077 11.0294 5.49694 11.3814 5.94086C11.7334 6.38478 11.9897 6.8968 12.134 7.44467C12.2783 7.99253 12.3076 8.56435 12.2199 9.12408Z" stroke="#A94C77" stroke-width="2" stroke-linecap="round" stroke-linejoin="round"/>
</svg>
