<svg width="13" height="13" viewBox="0 0 13 13" fill="none" xmlns="http://www.w3.org/2000/svg">
<path d="M8.49576 1.38464C8.2056 1.38464 7.92734 1.49991 7.72217 1.70507C7.517 1.91024 7.40174 2.18851 7.40174 2.47866V5.76071C7.40174 6.05086 7.517 6.32913 7.72217 6.5343C7.92734 6.73947 8.2056 6.85473 8.49576 6.85473C8.64083 6.85473 8.77996 6.91236 8.88255 7.01494C8.98513 7.11753 9.04276 7.25666 9.04276 7.40174V7.94875C9.04276 8.2389 8.9275 8.51717 8.72233 8.72233C8.51717 8.9275 8.2389 9.04276 7.94875 9.04276C7.80367 9.04276 7.66454 9.10039 7.56195 9.20298C7.45937 9.30556 7.40174 9.4447 7.40174 9.58977V10.6838C7.40174 10.8289 7.45937 10.968 7.56195 11.0706C7.66454 11.1732 7.80367 11.2308 7.94875 11.2308C8.8192 11.2308 9.654 10.885 10.2695 10.2695C10.885 9.654 11.2308 8.8192 11.2308 7.94875V2.47866C11.2308 2.18851 11.1155 1.91024 10.9104 1.70507C10.7052 1.49991 10.4269 1.38464 10.1368 1.38464H8.49576ZM2.47866 1.38464C2.18851 1.38464 1.91024 1.49991 1.70507 1.70507C1.49991 1.91024 1.38464 2.18851 1.38464 2.47866V5.76071C1.38464 6.05086 1.49991 6.32913 1.70507 6.5343C1.91024 6.73947 2.18851 6.85473 2.47866 6.85473C2.62374 6.85473 2.76287 6.91236 2.86545 7.01494C2.96804 7.11753 3.02567 7.25666 3.02567 7.40174V7.94875C3.02567 8.2389 2.91041 8.51717 2.70524 8.72233C2.50007 8.9275 2.2218 9.04276 1.93165 9.04276C1.78658 9.04276 1.64744 9.10039 1.54486 9.20298C1.44227 9.30556 1.38464 9.4447 1.38464 9.58977V10.6838C1.38464 10.8289 1.44227 10.968 1.54486 11.0706C1.64744 11.1732 1.78658 11.2308 1.93165 11.2308C2.80211 11.2308 3.63691 10.885 4.25241 10.2695C4.86792 9.654 5.2137 8.8192 5.2137 7.94875V2.47866C5.2137 2.18851 5.09844 1.91024 4.89327 1.70507C4.68811 1.49991 4.40984 1.38464 4.11969 1.38464H2.47866Z" stroke="#E47011" stroke-width="2" stroke-linecap="round" stroke-linejoin="round"/>
</svg>
