<svg width="17" height="17" viewBox="0 0 17 17" fill="none" xmlns="http://www.w3.org/2000/svg">
<path d="M1.09396 8.00537L2.08638 8.12828L2.09168 8.08545L2.09328 8.04232L1.09396 8.00537ZM1.72225 5.35079L0.804191 4.95434L1.72225 5.35079ZM8.42361 1.07856L8.44554 2.07832L8.45657 2.07808L8.4676 2.0776L8.42361 1.07856ZM13.5999 12.7338L12.8218 12.1057L13.5999 12.7338ZM7.51258 15.181L7.66757 14.1931L7.60113 14.1827L7.53389 14.1813L7.51258 15.181ZM14.4695 4.89453L15.3376 4.39803V4.39803L14.4695 4.89453ZM15.0907 6.71955L16.069 6.51226L15.0907 6.71955ZM15.0079 9.99631L15.9726 10.2594V10.2594L15.0079 9.99631ZM9.99721 1.32743L9.74003 2.29379V2.29379L9.99721 1.32743ZM3.86846 13.7708L3.24083 14.5493L3.86846 13.7708ZM1.6323 10.8673L2.57593 10.5363L2.57213 10.5255L2.5681 10.5148L1.6323 10.8673ZM7.63682 8.7105H6.63682C6.63682 9.05992 6.81921 9.384 7.1179 9.56532L7.63682 8.7105ZM8.63682 4.35532C8.63682 3.80303 8.18911 3.35532 7.63682 3.35532C7.08454 3.35532 6.63682 3.80303 6.63682 4.35532H8.63682ZM9.85099 11.2244C10.3231 11.511 10.9381 11.3606 11.2247 10.8885C11.5113 10.4164 11.3609 9.80138 10.8888 9.51479L9.85099 11.2244ZM1.09396 8.00537L2.09328 8.04232C2.11542 7.44347 2.26947 6.60598 2.64031 5.74723L1.72225 5.35079L0.804191 4.95434C0.332822 6.0459 0.125731 7.12772 0.0946448 7.96842L1.09396 8.00537ZM1.72225 5.35079L2.64031 5.74723C3.40297 3.98113 5.05337 2.15273 8.44554 2.07832L8.42361 1.07856L8.40168 0.0788047C4.09367 0.173294 1.8201 2.60179 0.804191 4.95434L1.72225 5.35079ZM13.5999 12.7338L12.8218 12.1057C12.506 12.4969 11.7885 13.1299 10.8295 13.6096C9.87865 14.0852 8.77723 14.3672 7.66757 14.1931L7.51258 15.181L7.3576 16.169C8.99759 16.4262 10.5257 15.9977 11.7241 15.3983C12.9143 14.8031 13.8656 13.9968 14.378 13.362L13.5999 12.7338ZM14.4695 4.89453L13.6015 5.39103C13.8575 5.83856 13.9893 6.34567 14.1124 6.92685L15.0907 6.71955L16.069 6.51226C15.9417 5.91187 15.7605 5.13741 15.3376 4.39803L14.4695 4.89453ZM15.0907 6.71955L14.1124 6.92685C14.324 7.92516 14.2689 8.90527 14.0431 9.73317L15.0079 9.99631L15.9726 10.2594C16.2792 9.13551 16.3488 7.83281 16.069 6.51226L15.0907 6.71955ZM15.0079 9.99631L14.0431 9.73317C13.7624 10.7624 13.23 11.6 12.8218 12.1057L13.5999 12.7338L14.378 13.362C14.91 12.703 15.6009 11.6223 15.9726 10.2594L15.0079 9.99631ZM8.42361 1.07856L8.4676 2.0776C8.67832 2.06832 9.15874 2.13909 9.74003 2.29379L9.99721 1.32743L10.2544 0.36107C9.64078 0.197765 8.91234 0.0560778 8.37963 0.079532L8.42361 1.07856ZM9.99721 1.32743L9.74003 2.29379C10.946 2.61474 12.4717 3.41587 13.6015 5.39103L14.4695 4.89453L15.3376 4.39803C13.9016 1.88753 11.8914 0.796733 10.2544 0.36107L9.99721 1.32743ZM7.51258 15.181L7.53389 14.1813C7.05201 14.171 5.64439 13.918 4.49609 12.9923L3.86846 13.7708L3.24083 14.5493C4.80906 15.8136 6.67563 16.1634 7.49128 16.1808L7.51258 15.181ZM3.86846 13.7708L4.49609 12.9923C3.28812 12.0184 2.69606 10.8788 2.57593 10.5363L1.6323 10.8673L0.688669 11.1984C0.927422 11.879 1.73228 13.3331 3.24083 14.5493L3.86846 13.7708ZM1.6323 10.8673L2.5681 10.5148C2.4708 10.2565 2.32349 9.80124 2.21471 9.31753C2.10024 8.80857 2.05505 8.38127 2.08638 8.12828L1.09396 8.00537L0.101544 7.88246C0.0260259 8.49222 0.138015 9.19864 0.263442 9.75636C0.394546 10.3393 0.56983 10.8836 0.696499 11.2199L1.6323 10.8673ZM7.63682 8.7105H8.63682V4.35532H7.63682H6.63682V8.7105H7.63682ZM10.3699 10.3696L10.8888 9.51479L8.15574 7.85567L7.63682 8.7105L7.1179 9.56532L9.85099 11.2244L10.3699 10.3696Z" fill="#D13823"/>
</svg>
