<svg width="17" height="15" viewBox="0 0 17 15" fill="none" xmlns="http://www.w3.org/2000/svg">
<path d="M1.07693 13.8121L0.0769348 13.8121L0.0769287 14.8067L1.0715 14.8121L1.07693 13.8121ZM15.2451 13.8891L15.2397 14.889L16.2451 14.8945V13.8891H15.2451ZM16.2451 12.6578V11.6578H14.2451V12.6578H16.2451ZM2.07694 12.6578L2.07695 11.6578L0.076948 11.6578L0.0769419 12.6578L2.07694 12.6578ZM10.6161 1.84613C10.6161 1.29385 10.1684 0.84613 9.61612 0.84613C9.06384 0.84613 8.61612 1.29385 8.61612 1.84613H10.6161ZM11.6073 6.27085V7.27085H11.661L11.7144 7.2651L11.6073 6.27085ZM13.2922 7.54055L12.3776 7.94511L12.3835 7.95796L13.2922 7.54055ZM13.4454 9.38739L12.492 9.0855L12.4705 9.15345L12.4588 9.22376L13.4454 9.38739ZM12.3732 10.9649L11.8752 10.0977L12.3732 10.9649ZM10.7649 10.9649L11.2628 10.0977L11.2189 10.0725L11.1727 10.0518L10.7649 10.9649ZM8.61612 11.1573C8.61612 11.7096 9.06384 12.1573 9.61612 12.1573C10.1684 12.1573 10.6161 11.7096 10.6161 11.1573H8.61612ZM5.97836 6.15542L5.48632 7.02599L5.4985 7.03288L5.51087 7.03942L5.97836 6.15542ZM4.40837 5.96304L4.40838 6.96304H4.48824L4.5671 6.95036L4.40837 5.96304ZM2.94677 5.39237C2.48285 5.69204 2.3497 6.31104 2.64936 6.77496C2.94902 7.23888 3.56803 7.37204 4.03194 7.07237L2.94677 5.39237ZM4.33179 7.88683L4.20321 6.89513L4.1944 6.89628L4.18561 6.89758L4.33179 7.88683ZM2.83839 9.07959L3.78188 9.41099L3.79195 9.38232L3.80026 9.35309L2.83839 9.07959ZM3.22131 10.6956L3.98478 10.0497L3.98015 10.0443L3.97544 10.0388L3.22131 10.6956ZM5.09763 11.0803L5.35876 12.0456L5.37748 12.0406L5.39599 12.0348L5.09763 11.0803ZM5.70591 11.1728C5.70591 11.725 6.15363 12.1728 6.70591 12.1728C7.2582 12.1728 7.70591 11.725 7.70591 11.1728H5.70591ZM1.07693 13.8121L1.0715 14.8121L15.2397 14.889L15.2451 13.8891L15.2505 12.8891L1.08237 12.8121L1.07693 13.8121ZM15.2451 13.8891H16.2451V12.6578H15.2451H14.2451V13.8891H15.2451ZM1.07693 13.8121L2.07693 13.8121L2.07694 12.6578L1.07694 12.6578L0.0769419 12.6578L0.0769348 13.8121L1.07693 13.8121ZM9.61612 8.23312H10.6161V1.84613H9.61612H8.61612V8.23312H9.61612ZM9.61612 8.23312L10.6026 8.39675C10.6349 8.20249 10.7237 7.8785 10.9011 7.62822C11.0492 7.4192 11.242 7.27085 11.6073 7.27085V6.27085V5.27085C10.4792 5.27085 9.72111 5.8343 9.26933 6.47176C8.8468 7.06793 8.68673 7.72508 8.6296 8.06948L9.61612 8.23312ZM11.6073 6.27085L11.7144 7.2651C11.6325 7.27392 12.0608 7.22866 12.3777 7.94507L13.2922 7.54055L14.2067 7.13603C13.5433 5.63624 12.2969 5.19083 11.5003 5.27659L11.6073 6.27085ZM13.2922 7.54055L12.3835 7.95796C12.4143 8.02504 12.4816 8.22094 12.5159 8.47082C12.5503 8.72225 12.5386 8.9383 12.492 9.0855L13.4454 9.38739L14.3987 9.68928C14.5665 9.15931 14.5548 8.61867 14.4974 8.19934C14.4397 7.77846 14.3233 7.38952 14.2009 7.12314L13.2922 7.54055ZM13.4454 9.38739L12.4588 9.22376C12.4514 9.2687 12.3975 9.45297 12.2686 9.66829C12.1418 9.87995 11.9991 10.0265 11.8752 10.0977L12.3732 10.9649L12.8711 11.8321C13.3905 11.5339 13.752 11.0841 13.9846 10.6955C14.215 10.3106 14.3755 9.89084 14.4319 9.55103L13.4454 9.38739ZM12.3732 10.9649L11.8752 10.0977C11.7702 10.158 11.6518 10.1777 11.5214 10.1655C11.4557 10.1593 11.3941 10.1455 11.3427 10.1291C11.2887 10.1118 11.2611 10.0967 11.2628 10.0977L10.7649 10.9649L10.267 11.8321C10.7092 12.086 11.8054 12.444 12.8711 11.8321L12.3732 10.9649ZM9.61612 11.1573H10.6161V8.7333H9.61612H8.61612V11.1573H9.61612ZM9.61612 8.7333H10.6161V8.23312H9.61612H8.61612V8.7333H9.61612ZM10.7649 10.9649L11.1727 10.0518C11.2169 10.0716 10.6856 9.77204 10.614 8.66853L9.61612 8.7333L8.61822 8.79807C8.7304 10.5264 9.62364 11.5504 10.3571 11.878L10.7649 10.9649ZM6.70591 7.4636H7.70591C7.70591 7.18206 7.64498 6.79466 7.47694 6.40956C7.30518 6.01594 6.9911 5.55977 6.44585 5.27142L5.97836 6.15542L5.51087 7.03942C5.54766 7.05888 5.59736 7.10289 5.64386 7.20946C5.6665 7.26134 5.68315 7.3173 5.69372 7.36984C5.69888 7.39549 5.70209 7.41784 5.70393 7.43548C5.70484 7.4442 5.70535 7.45117 5.70563 7.45625C5.70591 7.4614 5.70591 7.46386 5.70591 7.4636H6.70591ZM5.97836 6.15542L6.4704 5.28485C6.0705 5.05883 5.24134 4.81629 4.24964 4.97572L4.40837 5.96304L4.5671 6.95036C4.82588 6.90876 5.05278 6.92248 5.226 6.95381C5.41205 6.98746 5.50178 7.03473 5.48632 7.02599L5.97836 6.15542ZM4.40837 5.96304L4.40837 4.96304C4.17494 4.96304 3.61742 4.95918 2.94677 5.39237L3.48936 6.23237L4.03194 7.07237C4.14186 7.00138 4.21572 6.98032 4.25341 6.97239C4.29552 6.96353 4.32301 6.96304 4.40838 6.96304L4.40837 5.96304ZM6.70591 8.15617H7.70591V7.4636H6.70591H5.70591V8.15617H6.70591ZM6.70591 8.15617L7.04174 7.21424C6.561 7.04284 5.36493 6.74452 4.20321 6.89513L4.33179 7.88683L4.46036 8.87853C5.19794 8.78291 6.05945 8.98734 6.37008 9.09809L6.70591 8.15617ZM4.33179 7.88683L4.18561 6.89758C3.84523 6.94787 3.38906 7.08859 2.96266 7.36638C2.5259 7.6509 2.07362 8.11293 1.87652 8.80608L2.83839 9.07959L3.80026 9.35309C3.83291 9.23825 3.91034 9.13596 4.05435 9.04214C4.20872 8.94158 4.38437 8.88992 4.47797 8.87609L4.33179 7.88683ZM2.83839 9.07959L1.8949 8.74818C1.79578 9.03036 1.75401 9.44128 1.80815 9.86518C1.8655 10.3141 2.0411 10.863 2.46718 11.3523L3.22131 10.6956L3.97544 10.0388C3.86542 9.91251 3.81128 9.76242 3.79204 9.61178C3.78243 9.53661 3.78291 9.46995 3.78699 9.42145C3.79196 9.36252 3.7992 9.36166 3.78188 9.41099L2.83839 9.07959ZM3.22131 10.6956L2.45784 11.3414C2.92897 11.8983 3.99385 12.4149 5.35876 12.0456L5.09763 11.0803L4.83649 10.115C4.2102 10.2845 3.94763 10.0058 3.98478 10.0497L3.22131 10.6956ZM6.70591 11.1728H7.70591V9.96453H6.70591H5.70591V11.1728H6.70591ZM6.70591 9.96453H7.70591V8.15617H6.70591H5.70591V9.96453H6.70591ZM5.09763 11.0803L5.39599 12.0348C5.76514 11.9194 6.24504 11.7046 6.64729 11.4531C6.84739 11.328 7.06926 11.1686 7.25368 10.9782C7.40372 10.8233 7.70591 10.4701 7.70591 9.96453H6.70591H5.70591C5.70591 9.7985 5.75883 9.684 5.78467 9.63714C5.81075 9.58984 5.82978 9.5736 5.8171 9.5867C5.78972 9.61496 5.71721 9.67585 5.58704 9.75723C5.32874 9.91872 5.00451 10.0617 4.79927 10.1259L5.09763 11.0803Z" fill="#4282B3"/>
</svg>
